<svg width="190" height="432" viewBox="0 0 190 432" fill="none" xmlns="http://www.w3.org/2000/svg">
<rect y="24" width="24" height="24" fill="white"/>
<rect x="24" y="24" width="24" height="24" fill="white"/>
<rect x="24" width="24" height="24" fill="white"/>
<rect x="48" y="24" width="24" height="24" fill="white"/>
<rect x="48" width="24" height="24" fill="white"/>
<rect x="72" y="24" width="24" height="24" fill="white"/>
<rect x="72" width="24" height="24" fill="white"/>
<rect x="72" y="72" width="24" height="24" fill="white"/>
<rect x="72" y="48" width="24" height="24" fill="white"/>
<rect x="72" y="120" width="24" height="24" fill="#FF0000"/>
<rect x="72" y="96" width="24" height="24" fill="#FF0000"/>
<rect x="72" y="168" width="24" height="24" fill="#FF0000"/>
<rect x="72" y="144" width="24" height="24" fill="#FF0000"/>
<rect x="72" y="216" width="24" height="24" fill="black"/>
<rect x="72" y="192" width="24" height="24" fill="black"/>
<rect x="72" y="264" width="24" height="24" fill="#D9D9D9"/>
<rect x="72" y="240" width="24" height="24" fill="#D9D9D9"/>
<rect x="72" y="312" width="24" height="24" fill="white"/>
<rect x="72" y="288" width="24" height="24" fill="#D9D9D9"/>
<rect x="48" y="216" width="24" height="24" fill="white"/>
<rect x="48" y="192" width="24" height="24" fill="white"/>
<rect x="48" y="168" width="24" height="24" fill="white"/>
<rect x="48" y="264" width="24" height="24" fill="white"/>
<rect x="48" y="240" width="24" height="24" fill="white"/>
<rect x="48" y="288" width="24" height="24" fill="white"/>
<rect x="24" y="360" width="24" height="24" fill="black"/>
<rect x="24" y="336" width="24" height="24" fill="black"/>
<rect x="24" y="384" width="24" height="24" fill="black"/>
<rect y="360" width="24" height="24" fill="black"/>
<rect y="336" width="24" height="24" fill="black"/>
<rect y="384" width="24" height="24" fill="black"/>
<rect x="48" y="312" width="24" height="24" fill="white"/>
<rect x="24" y="216" width="24" height="24" fill="white"/>
<rect x="24" y="192" width="24" height="24" fill="white"/>
<rect x="24" y="264" width="24" height="24" fill="white"/>
<rect x="24" y="240" width="24" height="24" fill="white"/>
<rect x="24" y="288" width="24" height="24" fill="white"/>
<rect x="72" y="360" width="24" height="24" fill="white"/>
<rect x="48" y="362" width="24" height="24" fill="black"/>
<rect x="24" y="120" width="24" height="24" fill="black"/>
<rect x="24" y="96" width="24" height="24" fill="black"/>
<rect x="24" y="144" width="24" height="24" fill="black"/>
<rect y="120" width="24" height="24" fill="black"/>
<rect y="96" width="24" height="24" fill="black"/>
<rect y="144" width="24" height="24" fill="black"/>
<rect x="48" y="120" width="24" height="24" fill="black"/>
<rect x="72" y="336" width="24" height="24" fill="white"/>
<rect x="72" y="408" width="24" height="24" fill="#FF0000"/>
<rect x="48" y="408" width="24" height="24" fill="#FF0000"/>
<rect x="72" y="384" width="24" height="24" fill="white"/>
<rect y="48" width="24" height="24" fill="white"/>
<rect width="24" height="24" transform="matrix(-1 0 0 1 190 24)" fill="white"/>
<rect width="24" height="24" transform="matrix(-1 0 0 1 166 24)" fill="white"/>
<rect width="24" height="24" transform="matrix(-1 0 0 1 166 0)" fill="white"/>
<rect width="24" height="24" transform="matrix(-1 0 0 1 142 24)" fill="white"/>
<rect width="24" height="24" transform="matrix(-1 0 0 1 142 0)" fill="white"/>
<rect width="24" height="24" transform="matrix(-1 0 0 1 118 24)" fill="white"/>
<rect width="24" height="24" transform="matrix(-1 0 0 1 118 0)" fill="white"/>
<rect width="24" height="24" transform="matrix(-1 0 0 1 118 72)" fill="white"/>
<rect width="24" height="24" transform="matrix(-1 0 0 1 118 48)" fill="white"/>
<rect width="24" height="24" transform="matrix(-1 0 0 1 118 120)" fill="#FF0000"/>
<rect width="24" height="24" transform="matrix(-1 0 0 1 118 96)" fill="#FF0000"/>
<rect width="24" height="24" transform="matrix(-1 0 0 1 118 168)" fill="#FF0000"/>
<rect width="24" height="24" transform="matrix(-1 0 0 1 118 144)" fill="#FF0000"/>
<rect width="24" height="24" transform="matrix(-1 0 0 1 118 216)" fill="black"/>
<rect width="24" height="24" transform="matrix(-1 0 0 1 118 192)" fill="black"/>
<rect width="24" height="24" transform="matrix(-1 0 0 1 118 264)" fill="#D9D9D9"/>
<rect width="24" height="24" transform="matrix(-1 0 0 1 118 240)" fill="#D9D9D9"/>
<rect width="24" height="24" transform="matrix(-1 0 0 1 118 312)" fill="white"/>
<rect width="24" height="24" transform="matrix(-1 0 0 1 118 288)" fill="#D9D9D9"/>
<rect width="24" height="24" transform="matrix(-1 0 0 1 142 216)" fill="white"/>
<rect width="24" height="24" transform="matrix(-1 0 0 1 142 192)" fill="white"/>
<rect width="24" height="24" transform="matrix(-1 0 0 1 142 168)" fill="white"/>
<rect width="24" height="24" transform="matrix(-1 0 0 1 142 264)" fill="white"/>
<rect width="24" height="24" transform="matrix(-1 0 0 1 142 240)" fill="white"/>
<rect width="24" height="24" transform="matrix(-1 0 0 1 142 288)" fill="white"/>
<rect width="24" height="24" transform="matrix(-1 0 0 1 166 360)" fill="black"/>
<rect width="24" height="24" transform="matrix(-1 0 0 1 166 336)" fill="black"/>
<rect width="24" height="24" transform="matrix(-1 0 0 1 166 384)" fill="black"/>
<rect width="24" height="24" transform="matrix(-1 0 0 1 190 360)" fill="black"/>
<rect width="24" height="24" transform="matrix(-1 0 0 1 190 336)" fill="black"/>
<rect width="24" height="24" transform="matrix(-1 0 0 1 190 384)" fill="black"/>
<rect width="24" height="24" transform="matrix(-1 0 0 1 142 312)" fill="white"/>
<rect width="24" height="24" transform="matrix(-1 0 0 1 166 216)" fill="white"/>
<rect width="24" height="24" transform="matrix(-1 0 0 1 166 192)" fill="white"/>
<rect width="24" height="24" transform="matrix(-1 0 0 1 166 264)" fill="white"/>
<rect width="24" height="24" transform="matrix(-1 0 0 1 166 240)" fill="white"/>
<rect width="24" height="24" transform="matrix(-1 0 0 1 166 288)" fill="white"/>
<rect width="24" height="24" transform="matrix(-1 0 0 1 118 360)" fill="white"/>
<rect width="24" height="24" transform="matrix(-1 0 0 1 142 362)" fill="black"/>
<rect width="24" height="24" transform="matrix(-1 0 0 1 166 120)" fill="black"/>
<rect width="24" height="24" transform="matrix(-1 0 0 1 166 96)" fill="black"/>
<rect width="24" height="24" transform="matrix(-1 0 0 1 166 144)" fill="black"/>
<rect width="24" height="24" transform="matrix(-1 0 0 1 190 120)" fill="black"/>
<rect width="24" height="24" transform="matrix(-1 0 0 1 190 96)" fill="black"/>
<rect width="24" height="24" transform="matrix(-1 0 0 1 190 144)" fill="black"/>
<rect width="24" height="24" transform="matrix(-1 0 0 1 142 120)" fill="black"/>
<rect width="24" height="24" transform="matrix(-1 0 0 1 118 336)" fill="white"/>
<rect width="24" height="24" transform="matrix(-1 0 0 1 118 408)" fill="#FF0000"/>
<rect width="24" height="24" transform="matrix(-1 0 0 1 142 408)" fill="#FF0000"/>
<rect width="24" height="24" transform="matrix(-1 0 0 1 118 384)" fill="white"/>
<rect width="24" height="24" transform="matrix(-1 0 0 1 190 48)" fill="white"/>
</svg>
